<svg xmlns="http://www.w3.org/2000/svg" height="24" viewBox="0 0 48 48">
    <path d="m20.029615,4.868318c-0.277296,0.536175 -3.649775,10.556048 -3.599972,10.695889c0.049572,0.139502 8.161789,-7.785691 9.892422,-9.664355l1.327257,-1.440829l-3.704119,0l-3.704006,0l-0.211582,0.409295m1.915955,6.167955c-5.751614,5.719552 -6.051197,6.043235 -6.408648,6.923787c-0.611325,1.505636 -1.450607,4.132172 -1.352034,4.230743c0.161102,0.16099 14.718916,-14.502673 14.710955,-14.817831c-0.011253,-0.446017 -0.621099,-2.247481 -0.776749,-2.294437c-0.076971,-0.023194 -2.85494,2.6578 -6.173525,5.957738m4.944508,1.345328c-2.525917,2.540014 -2.646887,2.686794 -2.576395,3.12701c0.114489,0.71604 0.226814,0.634863 3.092102,-2.233383c2.563211,-2.565936 2.685997,-2.713736 2.55673,-3.079486c-0.227386,-0.64339 -0.33448,-0.567215 -3.072437,2.185859m1.021074,3.182722l-2.768423,2.706688l0.394512,1.514391c0.217039,0.832914 1.545656,5.575386 2.95261,10.538769c1.406952,4.963388 2.773424,9.791803 3.036623,10.729776c0.263203,0.937965 0.546406,1.881264 0.629406,2.096268l0.150864,0.390762l4.409134,0c2.425072,0 4.409122,-0.055031 4.409122,-0.122223c0,-0.067184 -2.302277,-6.949257 -5.116184,-15.293407c-2.8139,-8.344269 -5.116179,-15.196085 -5.116179,-15.226442c0,-0.205783 -0.525263,0.263882 -2.981485,2.665419m-10.060352,5.849504c-5.343224,5.353003 -5.847906,5.949438 -5.856546,6.920034c-0.003866,0.445221 10.352766,-9.81443 10.826302,-10.724998c0.369953,-0.711378 0.550608,-1.330776 0.41293,-1.415932c-0.058327,-0.036039 -2.480555,2.313311 -5.382685,5.220896m-1.91242,6.111221l-5.503426,5.42827l-0.583586,1.634342c-0.857018,2.399597 -2.976368,8.687614 -2.976368,8.830414c0,0.067642 1.936986,0.122902 4.304417,0.122902l4.3043,0l0.224428,-0.817116c0.12347,-0.449532 1.250513,-4.3666 2.504543,-8.704666c2.863926,-9.906641 3.429438,-11.939699 3.318129,-11.930035c-0.048885,0.004208 -2.565481,2.45031 -5.592438,5.435888" />
</svg>