<svg xmlns="http://www.w3.org/2000/svg" height="24" viewBox="0 0 24 24">
    <path d="M9.309 2s-1.732 0-3.366.287c-1.157.205-1.174.727-1.302 1.17l-1.024 4.8A2.766 2.766 0 0 0 2 10.77a2.769 2.769 0 0 0 2.77 2.767 2.76 2.76 0 0 0 2.76-2.767A2.76 2.76 0 0 0 6 8.3V3.347C6.395 3.25 7.592 3 9.309 3h.384c5.962 0 10.77 3.902 10.77 9s-4.823 9-10.77 9H9.31c-1.503 0-2.823-.229-4.135-.674l-.625.569c1.97 1.202 5.142 1.097 5.142 1.097h.336c.36 0 .724-.02 1.092-.064C17.243 21.352 22 17.13 22 12 22 6.477 16.616 2 9.309 2zM7 4.443v3.309c.307.229.618.482.875.766.34.375.62.785.875 1.226.674 1.165.941 2.582.941 3.64 0 3.053-1.058 4.579-1.834 5.423 2.351.43 3.078.06 3.278-.272.09-.157.095-.316.095-.476 0-.572-.404-1.11.278-1.522.098-.175-.149-.265-.22-.4-.146-.32.346-.376.384-.645-.15-.316-.317-.625-.21-.996.202-.493.777-.304 1.14-.572.13-.106.207-.31.146-.473-.574-.856-1.133-1.689-1.764-2.625-.017-.025-.04-.113-.04-.113-.097-.474.443-.703.468-1.152-.02-.528-.292-1.406-.726-2.338-.124-.266-.47-.998-.96-1.502C9.175 5.15 8.246 4.443 7 4.443zm3.854.121c.084.098.16.193.222.282.254.362.493.756.71 1.164.43.815.77 1.68.96 2.443.095.382.152.74.164 1.05l.004.071-.004.072a2.115 2.115 0 0 1-.28.938c.406.603 1.46 2.176 1.46 2.176s.226.337.226.797c0 .88-.475 1.29-.771 1.535a2.52 2.52 0 0 1-.33.213l-.059.402a1.74 1.74 0 0 1-.144.49c.007.044.033.217.002.44-.052.377-.332.879-.332.879.027.157.048.34.048.543 0 .08-.023.363-.023.363l.111-.033c2.253-.763 4.699-2.414 5.479-4.596a5.929 5.929 0 0 0 .357-1.969c.001-.955-.215-1.744-.33-2.047-1.05-2.78-3.782-4.855-7.47-5.213zM4.77 9.25c.832 0 1.51.683 1.51 1.52s-.678 1.517-1.51 1.517a1.518 1.518 0 0 1 0-3.037z" />
</svg>